<svg width="77" height="77" fill="none" stroke="#626060" stroke-linejoin="round" stroke-width="0.5" viewBox="0 0 24 24" xmlns="http://www.w3.org/2000/svg">
  <path fill="#626060" fill-rule="evenodd" stroke="none" d="M6.75 16a1.25 1.25 0 1 0 0-2.5 1.25 1.25 0 0 0 0 2.5Z" clip-rule="evenodd"></path>
  <path fill="#626060" fill-rule="evenodd" stroke="none" d="M17.25 16a1.25 1.25 0 1 0 0-2.5 1.25 1.25 0 0 0 0 2.5Z" clip-rule="evenodd"></path>
  <path d="M3.5 18.5A1.5 1.5 0 0 1 2 17v-4.645A3 3 0 0 1 3.66 9.67L4 9.5l1.155-4.955A2 2 0 0 1 7.103 3h9.844A2 2 0 0 1 18.9 4.564l1.103 4.937.34.17A3 3 0 0 1 22 12.354V17a1.5 1.5 0 0 1-1.5 1.5h-.998v.5a2 2 0 0 1-4.002 0v-.5h-7v.5a2 2 0 1 1-4 0v-.5h-1Z"></path>
  <path d="M7 11h10l-.826-3.717a1 1 0 0 0-.976-.783H8.802a1 1 0 0 0-.976.783L7 11Z"></path>
</svg>