<svg width="77" height="77" fill="none" stroke="#626060" stroke-linejoin="round" stroke-width="0.5" viewBox="0 0 24 24" xmlns="http://www.w3.org/2000/svg">
  <path d="M9.142 21.585a9.997 9.997 0 0 1-4.348-2.652 3 3 0 0 0-2.59-4.919A10.044 10.044 0 0 1 2.457 9H2.5a3 3 0 0 0 2.692-4.325A9.984 9.984 0 0 1 9.326 2.36a3 3 0 0 0 5.348 0 9.984 9.984 0 0 1 4.134 2.314A3 3 0 0 0 21.542 9a10.044 10.044 0 0 1 .255 5.015 3 3 0 0 0-2.59 4.919 9.998 9.998 0 0 1-4.349 2.651 3.001 3.001 0 0 0-5.716 0Z"></path>
  <path d="M12 15.5a3.5 3.5 0 1 0 0-7 3.5 3.5 0 0 0 0 7Z"></path>
</svg>